<?xml version="1.0" encoding="utf-8"?>
<!-- Generator: Adobe Illustrator 24.1.2, SVG Export Plug-In . SVG Version: 6.00 Build 0)  -->
<svg version="1.1" id="Layer_1" xmlns="http://www.w3.org/2000/svg" xmlns:xlink="http://www.w3.org/1999/xlink" x="0px" y="0px"
	 viewBox="0 0 93 81" style="enable-background:new 0 0 93 81;" xml:space="preserve">
<style type="text/css">
	.st0{fill:#242424;}
</style>
<path class="st0" d="M58.7,34.6h-3.3c-0.2,1.5-1.5,2.7-3.1,2.7v3.3C55.7,40.6,58.4,38,58.7,34.6z"/>
<path class="st0" d="M58.7,33.6c-0.2-3.3-3-6-6.4-6v3.3c1.6,0,2.9,1.2,3.1,2.7H58.7z"/>
<path class="st0" d="M58.7,43.4c-0.2-3.3-3-6-6.4-6v3.3c1.6,0,2.9,1.2,3.1,2.7H58.7z"/>
<path class="st0" d="M58.7,44.5h-3.3c-0.2,1.5-1.5,2.7-3.1,2.7v3.3C55.7,50.5,58.4,47.9,58.7,44.5z"/>
<path class="st0" d="M35.3,0c-3.3,0.2-6,3-6,6.4h3.2c0-1.6,1.2-2.9,2.7-3.1V0z"/>
<path class="st0" d="M36.2,0v3.3c1.5,0.2,2.7,1.5,2.7,3.1h3.2C42.1,3,39.5,0.2,36.2,0z"/>
<path class="st0" d="M52.2,8.9v3.3c1.5,0.2,2.7,1.5,2.7,3.1h3.2C58.2,11.9,55.6,9.1,52.2,8.9z"/>
<path class="st0" d="M36.2,22.7c3.3-0.2,6-3,6-6.4h-3.2c0,1.6-1.2,2.9-2.7,3.1V22.7z"/>
<path class="st0" d="M35.3,22.7v-3.3c-1.5-0.2-2.7-1.5-2.7-3.1h-3.2C29.4,19.7,32,22.4,35.3,22.7z"/>
<path class="st0" d="M22.4,0.5h-3.2v21.7h3.2V0.5z"/>
<path class="st0" d="M32.6,9.6h-9.4v3.2h9.4V9.6z"/>
<path class="st0" d="M58.2,0.5H45.4v3.2h12.7V0.5z"/>
<path class="st0" d="M42.1,9.6h-3.2v3.2h3.2V9.6z"/>
<path class="st0" d="M53,8.9h-3.2v3.2H53V8.9z"/>
<path class="st0" d="M35.3,27.7c-3.3,0.2-6,3-6,6.4h3.2c0-1.6,1.2-2.9,2.7-3.1V27.7z"/>
<path class="st0" d="M36.2,27.7V31c1.5,0.2,2.7,1.5,2.7,3.1h3.2C42.1,30.7,39.5,27.9,36.2,27.7z"/>
<path class="st0" d="M36.2,50.5c3.3-0.2,6-3,6-6.4h-3.2c0,1.6-1.2,2.9-2.7,3.1V50.5z"/>
<path class="st0" d="M35.3,50.5v-3.3c-1.5-0.2-2.7-1.5-2.7-3.1h-3.2C29.4,47.5,32,50.3,35.3,50.5z"/>
<path class="st0" d="M42.1,35h-3.2v8.1h3.2V35z"/>
<path class="st0" d="M45.5,34.1v2.5h3.2v-2.5c0-1.6,1.2-2.9,2.7-3.1v-3.3C48.1,27.9,45.5,30.7,45.5,34.1z"/>
<path class="st0" d="M54.1,37.3h-8.6v3.2h8.6V37.3z"/>
<path class="st0" d="M32.6,35h-3.2v8.1h3.2V35z"/>
<path class="st0" d="M48.7,4.7h-3.2v7.4h3.2V4.7z"/>
<path class="st0" d="M48.6,44.1v-2.4h-3.2v2.4c0,3.4,2.6,6.2,5.9,6.4v-3.3C49.8,47,48.6,45.7,48.6,44.1z"/>
<path class="st0" d="M73.4,34.6h-3.3c-0.2,1.5-1.5,2.7-3.1,2.7v3.3C70.4,40.6,73.2,37.9,73.4,34.6z"/>
<path class="st0" d="M73.4,43.3c-0.2-3.3-3-6-6.4-6v3.3c1.6,0,2.9,1.2,3.1,2.7H73.4z"/>
<path class="st0" d="M65.2,27.6H62v8.9h3.2V27.6z"/>
<path class="st0" d="M65.2,41.5H62v9h3.2V41.5z"/>
<path class="st0" d="M68.4,37.3H62v3.3h6.5V37.3z"/>
<path class="st0" d="M81.6,33.3h-3.2v3.2h3.2V33.3z"/>
<path class="st0" d="M91.1,33.3h-3.2v3.2h3.2V33.3z"/>
<path class="st0" d="M84.3,27.7c-3.3,0.2-6,3-6,6.4h3.2c0-1.6,1.2-2.9,2.7-3.1V27.7z"/>
<path class="st0" d="M85.2,27.7V31c1.5,0.2,2.7,1.5,2.7,3.1h3.2C91.1,30.7,88.5,27.9,85.2,27.7z"/>
<path class="st0" d="M76.1,27.6c-3.3,0.2-6,3-6,6.4h3.2c0-1.6,1.2-2.9,2.7-3.1V27.6z"/>
<path class="st0" d="M76.1,50.5c-3.3-0.2-6-3-6-6.4h3.2c0,1.6,1.2,2.9,2.7,3.1V50.5z"/>
<g>
	<rect x="87.9" y="41.4" class="st0" width="3.2" height="9.1"/>
	<rect x="78.4" y="41.4" class="st0" width="3.2" height="9.1"/>
</g>
<path class="st0" d="M91.1,37.3H78.4v3.2h12.7V37.3z"/>
<path class="st0" d="M6,5.6H2.8v3.2H6V5.6z"/>
<path class="st0" d="M15.5,5.6h-3.2v3.2h3.2V5.6z"/>
<path class="st0" d="M32.6,5.6h-3.2v3.2h3.2V5.6z"/>
<path class="st0" d="M42.1,5.6h-3.2v3.2h3.2V5.6z"/>
<path class="st0" d="M32.6,13.7h-3.2V17h3.2V13.7z"/>
<path class="st0" d="M42.1,13.7h-3.2V17h3.2V13.7z"/>
<path class="st0" d="M52.2,22.7c3.3-0.2,6-3,6-6.4h-3.2c0,1.6-1.2,2.9-2.7,3.1V22.7z"/>
<path class="st0" d="M51.4,22.7v-3.3c-1.5-0.2-2.7-1.5-2.7-3.1h-3.2C45.4,19.7,48.1,22.4,51.4,22.7z"/>
<path class="st0" d="M48.7,12.9h-3.2v4h3.2V12.9z"/>
<path class="st0" d="M6,9.9H2.8v7H6V9.9z"/>
<path class="st0" d="M8.7,0c-3.3,0.2-6,3-6,6.4H6c0-1.6,1.2-2.9,2.7-3.1V0z"/>
<path class="st0" d="M9.6,0v3.3c1.5,0.2,2.7,1.5,2.7,3.1h3.2C15.5,3,12.9,0.2,9.6,0z"/>
<path class="st0" d="M0,22.5c3.3-0.2,6-3,6-6.4H2.7c0,1.6-1.2,2.9-2.7,3.1V22.5z"/>
<path class="st0" d="M15.5,9.9h-3.2v12.2h3.2V9.9z"/>
<path class="st0" d="M65.1,11.2l-3.2,4.3V0.5h3.2V11.2z"/>
<path class="st0" d="M74.8,22.2h-3.2V11.7l3.2-4.1V22.2z"/>
<path class="st0" d="M74.8,0L61.9,17.5v5.2L74.8,5.4V0z"/>
<path class="st0" d="M15.4,39.2l-3.2,4V39l3.2-4.3V39.2z"/>
<path class="st0" d="M25.7,50.5h-3.2V39l3.2-4V50.5z"/>
<path class="st0" d="M25.7,27.7L12.2,45.2v5.2l13.5-17.4V27.7z"/>
<path class="st0" d="M15.4,27.7L0,45.2v5.2l15.4-17.4V27.7z"/>
<path class="st0" d="M70.1,55.1c-4.6,0.3-8.3,4.2-8.3,8.9h4.5c0-2.2,1.6-4.1,3.8-4.4L70.1,55.1L70.1,55.1z"/>
<path class="st0" d="M71.3,55.1v4.6c2.1,0.3,3.7,2.1,3.7,4.4h4.5C79.6,59.3,76,55.4,71.3,55.1z"/>
<path class="st0" d="M83.5,55.1c-4.6,0.3-8.3,4.2-8.3,8.9h4.5c0-2.2,1.6-4.1,3.8-4.4L83.5,55.1L83.5,55.1z"/>
<path class="st0" d="M84.7,55.1v4.6c2.1,0.3,3.7,2.1,3.7,4.4h4.5C92.9,59.3,89.3,55.4,84.7,55.1z"/>
<path class="st0" d="M76.8,75.6c-2.2-1.1-9.9-5.3-10.3-10.3h-4.7c0.4,7.5,12.2,13.7,15,15.1L76.8,75.6L76.8,75.6z"/>
<path class="st0" d="M88.3,65.2c-0.3,5-8,9.2-10.3,10.3v4.8c2.8-1.4,14.6-7.6,15-15.1H88.3z"/>
</svg>
