<svg xmlns="http://www.w3.org/2000/svg" viewBox="0 0 43 34.89">
    <defs>
        <style>
            .a {
                fill: #92d400;
            }
        </style>
    </defs>
    <path class="a" d="M11.47,4A12.34,12.34,0,0,0,0,16.35H6.26a6.06,6.06,0,0,1,5.24-6V4Z" transform="translate(0 -4)"/>
    <path class="a" d="M13.11,4v6.32a6.06,6.06,0,0,1,5.17,6h6.26A12.34,12.34,0,0,0,13.11,4Z" transform="translate(0 -4)"/>
    <path class="a" d="M29.85,4A12.34,12.34,0,0,0,18.39,16.35h6.26a6.06,6.06,0,0,1,5.24-6V4Z" transform="translate(0 -4)"/>
    <path class="a" d="M31.5,4v6.32a6.07,6.07,0,0,1,5.17,6h6.26A12.31,12.31,0,0,0,31.5,4Z" transform="translate(0 -4)"/>
    <path class="a" d="M20.7,32.3C17.62,30.78,7,25,6.54,18H0C.49,28.42,16.78,37,20.66,38.89V32.3Z" transform="translate(0 -4)"/>
    <path class="a" d="M36.5,18C36,25,25.42,30.78,22.34,32.3v6.59C26.22,37,42.55,28.42,43,18Z" transform="translate(0 -4)"/>
</svg>