<svg xmlns="http://www.w3.org/2000/svg" viewBox="0 0 400.95 129.04"><defs><style>.a{fill:#cb2742}</style></defs><path class="a" d="m34.14.6-9.16 58.04-9-58.04H4.14L1.21 76.24h6.6L10.57 7.2l11.25 68.12h6.3L39.43 7.2l2.7 69.04h6.6L45.89.6H34.14zM100.59 4.16a14.15 14.15 0 0 0-4.56-3A14.48 14.48 0 0 0 90.45.05h-1.84a14 14 0 0 0-10 4.11 14.59 14.59 0 0 0-3.1 4.54 14 14 0 0 0-1.14 5.6v48.61a13.66 13.66 0 0 0 1.14 5.56A14.6 14.6 0 0 0 83.06 76a13.61 13.61 0 0 0 5.55 1.14h1.84a14 14 0 0 0 5.6-1.14 14.59 14.59 0 0 0 4.54-3 14.07 14.07 0 0 0 3-4.51 14.22 14.22 0 0 0 1.09-5.54V14.3a14.53 14.53 0 0 0-1.09-5.58 14 14 0 0 0-3-4.56ZM98.1 14.3v48.61a7.77 7.77 0 0 1-2.24 5.41A7.73 7.73 0 0 1 93.45 70a7.41 7.41 0 0 1-3 .6h-1.84a7.37 7.37 0 0 1-3-.61 7.78 7.78 0 0 1-2.45-1.63 7.7 7.7 0 0 1-1.62-2.45 7.37 7.37 0 0 1-.61-3V14.3a7.41 7.41 0 0 1 .6-3 8 8 0 0 1 1.67-2.41 7.61 7.61 0 0 1 2.45-1.63 7.37 7.37 0 0 1 3-.61h1.84a7.41 7.41 0 0 1 3 .6 8.13 8.13 0 0 1 2.41 1.63 7.93 7.93 0 0 1 1.63 2.42 7.41 7.41 0 0 1 .57 3ZM154.85 4.16a14.11 14.11 0 0 0-4.55-3 14.52 14.52 0 0 0-5.58-1.11h-1.47a14.08 14.08 0 0 0-10.05 4.11 14.59 14.59 0 0 0-3.06 4.54 14.12 14.12 0 0 0-1.14 5.6v5.06a18.57 18.57 0 0 0 2.6 10.21 23.4 23.4 0 0 0 7.54 7 87.46 87.46 0 0 1 5.19 3.36 20.6 20.6 0 0 1 4.16 3.91 17.78 17.78 0 0 1 2.83 5.1 20.25 20.25 0 0 1 1 6.84v7.09a7.45 7.45 0 0 1-.61 3 7.71 7.71 0 0 1-1.62 2.44 8 8 0 0 1-2.37 1.69 7.41 7.41 0 0 1-3 .6h-1.47a7.41 7.41 0 0 1-3-.61 7.49 7.49 0 0 1-4.07-4.08 7.54 7.54 0 0 1-.61-3V48.28H129v14.63a13.82 13.82 0 0 0 1.14 5.56 14.6 14.6 0 0 0 7.55 7.53 13.66 13.66 0 0 0 5.56 1.14h1.47a13.9 13.9 0 0 0 5.59-1.14 14.59 14.59 0 0 0 4.54-3 14.08 14.08 0 0 0 4.11-10v-7.18a33.66 33.66 0 0 0-.86-8.07 21.55 21.55 0 0 0-2.51-6.13 21.28 21.28 0 0 0-3.86-4.62 31.89 31.89 0 0 0-4.92-3.55c-1.55-1-3.05-1.95-4.45-3a21.54 21.54 0 0 1-3.57-3.17 13.56 13.56 0 0 1-2.35-3.64 10.64 10.64 0 0 1-.84-4.3V14.3a7.25 7.25 0 0 1 .61-3 7.65 7.65 0 0 1 1.63-2.41 7.46 7.46 0 0 1 2.44-1.63 7.38 7.38 0 0 1 3-.61h1.47a7.41 7.41 0 0 1 3 .6 8 8 0 0 1 2.41 1.64 8.13 8.13 0 0 1 1.63 2.41 7.41 7.41 0 0 1 .6 3v1H159v-1a14.34 14.34 0 0 0-1.09-5.58 13.86 13.86 0 0 0-3.06-4.56ZM208.46 36.7a13 13 0 0 0 3.72-3.7 12.44 12.44 0 0 0 2.15-7.09V12.65a11.47 11.47 0 0 0-1-4.69 12.49 12.49 0 0 0-6.4-6.4 11.43 11.43 0 0 0-4.68-1h-17.6v75.68h18.29a11.46 11.46 0 0 0 4.68-1 12.43 12.43 0 0 0 6.39-6.4 11.46 11.46 0 0 0 1-4.68V47.81a12.25 12.25 0 0 0-2.35-7.4 13.15 13.15 0 0 0-4.2-3.71Zm-.82-10.61a5.57 5.57 0 0 1-.62 2.65 9.89 9.89 0 0 1-1.59 2.26 8 8 0 0 1-2 1.52c-.69.37-1.32.7-1.88 1h-10.31V7.11h11a4.84 4.84 0 0 1 3.77 1.7 5.54 5.54 0 0 1 1.58 3.84Zm-16.4 14h10.3a19.73 19.73 0 0 1 2 1 14.28 14.28 0 0 1 2.37 1.63 8 8 0 0 1 1.79 2.21 5.84 5.84 0 0 1 .7 2.92V64.2a5.22 5.22 0 0 1-1.59 3.85 5.31 5.31 0 0 1-3.94 1.59h-11.6ZM264.93 36.7a13 13 0 0 0 3.72-3.7 12.44 12.44 0 0 0 2.15-7.09V12.65a11.47 11.47 0 0 0-1-4.69 12.49 12.49 0 0 0-6.4-6.4 11.43 11.43 0 0 0-4.68-1h-17.6v75.68h6.59V40.07H258a18.68 18.68 0 0 1 2 1 15.12 15.12 0 0 1 2.37 1.63 8.18 8.18 0 0 1 1.8 2.21 5.84 5.84 0 0 1 .7 2.92v28.41h6.59V47.81a12.25 12.25 0 0 0-2.35-7.4 13.15 13.15 0 0 0-4.18-3.71Zm-1.44-8a9.89 9.89 0 0 1-1.59 2.3 8.11 8.11 0 0 1-1.9 1.48l-1.87 1h-10.42V7.11h11a4.84 4.84 0 0 1 3.77 1.7 5.54 5.54 0 0 1 1.58 3.84v13.44a5.57 5.57 0 0 1-.57 2.65ZM296.67 76.24h24.81v-6.6h-18.21V37.95H319v-6.61h-15.73V7.2h18.21V.6h-24.81v75.64zM394.34.6v62.31a7.61 7.61 0 0 1-.6 3 7.79 7.79 0 0 1-1.63 2.44A8 8 0 0 1 389.7 70a7.41 7.41 0 0 1-3 .6h-1.47a6.1 6.1 0 0 1-3.65-1.19 12.14 12.14 0 0 1-3.06-3.2 17.55 17.55 0 0 1-2-4.14 12 12 0 0 1-.73-3.72V.6h-6.6v57.71a11.68 11.68 0 0 1-.73 3.72 17.91 17.91 0 0 1-2 4.14 12.3 12.3 0 0 1-3.06 3.2 6.13 6.13 0 0 1-3.65 1.19h-1.47a7.41 7.41 0 0 1-3-.61 7.62 7.62 0 0 1-2.44-1.63 7.79 7.79 0 0 1-1.63-2.44 7.63 7.63 0 0 1-.61-3V.6H344v62.31a13.67 13.67 0 0 0 1.15 5.56 14.51 14.51 0 0 0 2.99 4.53 14.72 14.72 0 0 0 4.49 3 13.66 13.66 0 0 0 5.56 1.14h1.47a13.83 13.83 0 0 0 8.76-2.92 14.36 14.36 0 0 0 4-4.94 14.27 14.27 0 0 0 4 4.94 13.83 13.83 0 0 0 8.76 2.92h1.47a13.9 13.9 0 0 0 5.64-1.14 14.47 14.47 0 0 0 4.54-3 14.08 14.08 0 0 0 4.11-10V.6Z"/><path d="M9.05 94.9a5.13 5.13 0 0 0-2.11.52 17.84 17.84 0 0 0-2.21 1.17 25.27 25.27 0 0 0-2.42 1.7V85.73H-.06v30.19a6.11 6.11 0 0 0 .5 2.43 6.26 6.26 0 0 0 1.35 2 6.3 6.3 0 0 0 4.46 1.84h1a6.3 6.3 0 0 0 4.46-1.84 6.26 6.26 0 0 0 1.35-2 6.11 6.11 0 0 0 .5-2.43v-16.5a4.32 4.32 0 0 0-1.33-3.2 4.39 4.39 0 0 0-3.18-1.32Zm2.18 21a3.76 3.76 0 0 1-1.14 2.78 3.83 3.83 0 0 1-2.8 1.13h-1a3.83 3.83 0 0 1-2.8-1.13 3.76 3.76 0 0 1-1.14-2.78v-14.79a23.51 23.51 0 0 1 2.42-1.93 16.45 16.45 0 0 1 2.21-1.34 4.73 4.73 0 0 1 2.11-.59 2.27 2.27 0 0 1 1.49.59 2 2 0 0 1 .69 1.58ZM35 94.9a5.2 5.2 0 0 0-2.11.52 17.71 17.71 0 0 0-2.2 1.17 24.08 24.08 0 0 0-2.42 1.7v-2.92h-2.39v26.34h2.37v-20.6a22.48 22.48 0 0 1 2.42-1.93 16.34 16.34 0 0 1 2.2-1.34 4.8 4.8 0 0 1 2.13-.59 2.24 2.24 0 0 1 1.49.59 2 2 0 0 1 .69 1.58v4.75h2.37v-4.75a4.32 4.32 0 0 0-1.33-3.2A4.39 4.39 0 0 0 35 94.9ZM61.25 96.74a6.49 6.49 0 0 0-2-1.35 6.33 6.33 0 0 0-2.47-.49h-1a6.29 6.29 0 0 0-2.47.49 6.37 6.37 0 0 0-2 1.35 6.28 6.28 0 0 0-1.35 2 6 6 0 0 0-.5 2.45v14.76a6 6 0 0 0 .5 2.45 6.28 6.28 0 0 0 1.35 2 6.3 6.3 0 0 0 4.46 1.84h1a6.16 6.16 0 0 0 2.47-.5 6.38 6.38 0 0 0 3.34-3.31 6 6 0 0 0 .5-2.45v-3.38h-2.35v3.38a3.76 3.76 0 0 1-1.14 2.78 3.83 3.83 0 0 1-2.8 1.13h-1A3.83 3.83 0 0 1 53 118.7a3.76 3.76 0 0 1-1.14-2.78v-8.7H63.1v-6.06a6 6 0 0 0-.5-2.45 6.28 6.28 0 0 0-1.35-1.97Zm-.52 8.18h-8.92v-3.76A3.76 3.76 0 0 1 53 98.38a3.83 3.83 0 0 1 2.8-1.13h1a3.83 3.83 0 0 1 2.8 1.13 3.76 3.76 0 0 1 1.14 2.78ZM98.65 115.41a4.78 4.78 0 0 1-1 3.12 3.49 3.49 0 0 1-2.89 1.3h-1a3.78 3.78 0 0 1-2.11-.61 5.28 5.28 0 0 1-1.65-1.58 7.2 7.2 0 0 1-.93-2.19 9.53 9.53 0 0 1-.31-2.4V95.37h-2.34v17.68a9.53 9.53 0 0 1-.31 2.4 7.19 7.19 0 0 1-.92 2.19 5.46 5.46 0 0 1-1.52 1.58 3.76 3.76 0 0 1-2.13.61h-1a3.5 3.5 0 0 1-2.9-1.3 4.83 4.83 0 0 1-1-3.12v-20h-2.45v20a7.57 7.57 0 0 0 .45 2.63 6.49 6.49 0 0 0 1.28 2.14 6.18 6.18 0 0 0 2 1.46 6.1 6.1 0 0 0 2.59.54h1a6.26 6.26 0 0 0 3.82-1.18 6.17 6.17 0 0 0 2.28-3.39 6.14 6.14 0 0 0 6.07 4.61h1a6 6 0 0 0 4.57-2 6.51 6.51 0 0 0 1.29-2.14 7.81 7.81 0 0 0 .45-2.63v-20h-2.34ZM122.41 94.9a5.17 5.17 0 0 0-2.11.52 17.84 17.84 0 0 0-2.21 1.17 24 24 0 0 0-2.41 1.7V85.73h-2.38v36h2.38v-20.6a22.39 22.39 0 0 1 2.41-1.93 16.45 16.45 0 0 1 2.21-1.34 4.77 4.77 0 0 1 2.11-.59 2.27 2.27 0 0 1 1.49.59 2 2 0 0 1 .69 1.58v22.29H127V99.42a4.32 4.32 0 0 0-1.33-3.2 4.39 4.39 0 0 0-3.26-1.32ZM150.57 96.74a6.37 6.37 0 0 0-2-1.35 6.29 6.29 0 0 0-2.47-.49h-1a6.24 6.24 0 0 0-2.46.49 6.42 6.42 0 0 0-2 1.35 6.63 6.63 0 0 0-1.35 2 6 6 0 0 0-.49 2.45v14.76a6.1 6.1 0 0 0 .49 2.43 6.6 6.6 0 0 0 1.35 2 6.22 6.22 0 0 0 2 1.34 6.08 6.08 0 0 0 2.46.5h1a6.3 6.3 0 0 0 4.46-1.84 6.26 6.26 0 0 0 1.35-2 6.11 6.11 0 0 0 .5-2.43v-14.79a6 6 0 0 0-.5-2.45 6.28 6.28 0 0 0-1.34-1.97Zm-.52 19.18a3.76 3.76 0 0 1-1.14 2.78 3.83 3.83 0 0 1-2.8 1.13h-1a3.83 3.83 0 0 1-2.8-1.13 3.79 3.79 0 0 1-1.13-2.78v-14.76a3.79 3.79 0 0 1 1.13-2.78 3.83 3.83 0 0 1 2.8-1.13h1a3.83 3.83 0 0 1 2.8 1.13 3.76 3.76 0 0 1 1.14 2.78ZM175.51 116a23.51 23.51 0 0 1-2.42 1.93 16.34 16.34 0 0 1-2.2 1.34 4.8 4.8 0 0 1-2.11.59 2.28 2.28 0 0 1-1.5-.59 2 2 0 0 1-.69-1.58V95.37h-2.37v22.29a4.36 4.36 0 0 0 1.33 3.2 4.41 4.41 0 0 0 3.23 1.32 5.2 5.2 0 0 0 2.11-.52 17.71 17.71 0 0 0 2.2-1.17 25.27 25.27 0 0 0 2.42-1.7v2.92h2.37V95.37h-2.37ZM201.25 96.74a6.37 6.37 0 0 0-2-1.35 6.28 6.28 0 0 0-2.46-.49h-1.05a6.28 6.28 0 0 0-2.46.49 6.37 6.37 0 0 0-2 1.35 6.28 6.28 0 0 0-1.35 2 5.87 5.87 0 0 0-.5 2.45v.94a4.43 4.43 0 0 0 .87 2.63 12.38 12.38 0 0 0 2 2.16 15.77 15.77 0 0 0 2.85 2c1 .66 2 1.3 2.79 1.93a12.21 12.21 0 0 1 1.95 1.76 2.78 2.78 0 0 1 .85 1.76v1.6a3.79 3.79 0 0 1-1.13 2.78 3.85 3.85 0 0 1-2.8 1.13h-1.05a3.82 3.82 0 0 1-2.76-1.18 3.76 3.76 0 0 1-1.14-2.78v-4.18h-2.37v4.18a5.94 5.94 0 0 0 .5 2.43 6.26 6.26 0 0 0 1.35 2 6.18 6.18 0 0 0 2 1.34 6.11 6.11 0 0 0 2.46.5h1.05a6.11 6.11 0 0 0 2.46-.5 6.18 6.18 0 0 0 2-1.34 6.45 6.45 0 0 0 1.36-2 6.1 6.1 0 0 0 .49-2.43v-1.6a4.57 4.57 0 0 0-.9-2.68 12.47 12.47 0 0 0-2-2.21 17.42 17.42 0 0 0-2.94-2.07q-1.47-.93-2.7-1.83a15 15 0 0 1-1.9-1.72 2.61 2.61 0 0 1-.85-1.71v-.94a3.76 3.76 0 0 1 1.13-2.78 3.82 3.82 0 0 1 2.79-1.13h1.05a3.85 3.85 0 0 1 2.8 1.13 3.79 3.79 0 0 1 1.13 2.78v.94h2.37v-.94a6 6 0 0 0-.49-2.45 6.48 6.48 0 0 0-1.4-1.97ZM226 96.74a6.37 6.37 0 0 0-2-1.35 6.28 6.28 0 0 0-2.46-.49h-1.04a6.28 6.28 0 0 0-2.46.49 6.37 6.37 0 0 0-2 1.35 6.28 6.28 0 0 0-1.35 2 5.87 5.87 0 0 0-.5 2.45v14.76a5.87 5.87 0 0 0 .5 2.45 6.28 6.28 0 0 0 1.35 2 6.18 6.18 0 0 0 2 1.34 6.11 6.11 0 0 0 2.46.5h1.05a6.11 6.11 0 0 0 2.46-.5 6.18 6.18 0 0 0 2-1.34 6.28 6.28 0 0 0 1.35-2 5.87 5.87 0 0 0 .5-2.45v-3.38h-2.37v3.38a3.76 3.76 0 0 1-1.14 2.78 3.81 3.81 0 0 1-2.79 1.13h-1.06a3.81 3.81 0 0 1-2.79-1.13 3.76 3.76 0 0 1-1.14-2.78v-8.7h11.28v-6.06a5.87 5.87 0 0 0-.5-2.45 6.28 6.28 0 0 0-1.35-2Zm-.52 8.18h-8.91v-3.76a3.76 3.76 0 0 1 1.14-2.78 3.81 3.81 0 0 1 2.79-1.13h1.05a3.81 3.81 0 0 1 2.79 1.13 3.76 3.76 0 0 1 1.14 2.78ZM262.46 94.9a5.2 5.2 0 0 0-2.11.52 17.71 17.71 0 0 0-2.2 1.17 24.08 24.08 0 0 0-2.42 1.7v-2.92h-2.37V129h2.37v-8.22a6.06 6.06 0 0 0 3.93 1.36h1a6.3 6.3 0 0 0 4.45-1.84 6.45 6.45 0 0 0 1.36-2 6.1 6.1 0 0 0 .49-2.43V99.42a4.35 4.35 0 0 0-1.32-3.2 4.41 4.41 0 0 0-3.18-1.32Zm2.18 21a3.76 3.76 0 0 1-1.14 2.78 3.81 3.81 0 0 1-2.79 1.13h-1a3.82 3.82 0 0 1-2.79-1.13 3.76 3.76 0 0 1-1.14-2.78v-14.79a22.48 22.48 0 0 1 2.42-1.93 16.34 16.34 0 0 1 2.2-1.34 4.8 4.8 0 0 1 2.11-.59 2.28 2.28 0 0 1 1.5.59 2 2 0 0 1 .68 1.58ZM288.4 94.9a5.13 5.13 0 0 0-2.11.52 17.84 17.84 0 0 0-2.21 1.17 25.27 25.27 0 0 0-2.42 1.7v-2.92h-2.37v26.34h2.37v-20.6a23.51 23.51 0 0 1 2.42-1.93 16.45 16.45 0 0 1 2.21-1.34 4.73 4.73 0 0 1 2.11-.59 2.27 2.27 0 0 1 1.49.59 2 2 0 0 1 .69 1.58v4.75H293v-4.75a4.36 4.36 0 0 0-1.33-3.2 4.41 4.41 0 0 0-3.27-1.32ZM314.66 96.74a6.37 6.37 0 0 0-2-1.35 6.28 6.28 0 0 0-2.46-.49h-1a6.28 6.28 0 0 0-2.46.49 6.37 6.37 0 0 0-2 1.35 6.28 6.28 0 0 0-1.35 2 5.87 5.87 0 0 0-.5 2.45v14.76a5.94 5.94 0 0 0 .5 2.43 6.26 6.26 0 0 0 1.35 2 6.18 6.18 0 0 0 2 1.34 6.11 6.11 0 0 0 2.46.5h1a6.11 6.11 0 0 0 2.46-.5 6.18 6.18 0 0 0 2-1.34 6.26 6.26 0 0 0 1.35-2 5.94 5.94 0 0 0 .5-2.43v-14.79a5.87 5.87 0 0 0-.5-2.45 6.28 6.28 0 0 0-1.35-1.97Zm-.52 19.18a3.76 3.76 0 0 1-1.14 2.78 3.82 3.82 0 0 1-2.79 1.13h-1a3.81 3.81 0 0 1-2.79-1.13 3.76 3.76 0 0 1-1.14-2.78v-14.76a3.76 3.76 0 0 1 1.14-2.78 3.81 3.81 0 0 1 2.79-1.13h1a3.82 3.82 0 0 1 2.79 1.13 3.76 3.76 0 0 1 1.14 2.78ZM328.89 85.73h2.37v4.99h-2.37zM328.84 124.48a1.2 1.2 0 0 1-.33.8 3.78 3.78 0 0 1-.83.68 6 6 0 0 1-1 .5 3 3 0 0 1-1 .19V129a5.74 5.74 0 0 0 1.92-.35 6.82 6.82 0 0 0 1.78-1 5.33 5.33 0 0 0 1.3-1.43 3.39 3.39 0 0 0 .5-1.77V95.37h-2.37ZM355.34 96.74a6.37 6.37 0 0 0-2-1.35 6.29 6.29 0 0 0-2.47-.49h-1a6.28 6.28 0 0 0-2.46.49 6.42 6.42 0 0 0-2 1.35 6.63 6.63 0 0 0-1.35 2 6 6 0 0 0-.49 2.45v14.76a6 6 0 0 0 .49 2.45 6.63 6.63 0 0 0 1.35 2 6.22 6.22 0 0 0 2 1.34 6.11 6.11 0 0 0 2.46.5h1a6.3 6.3 0 0 0 4.46-1.84 6.28 6.28 0 0 0 1.35-2 5.87 5.87 0 0 0 .5-2.45v-3.38h-2.37v3.38a3.76 3.76 0 0 1-1.14 2.78 3.83 3.83 0 0 1-2.8 1.13h-1a3.85 3.85 0 0 1-2.8-1.13 3.79 3.79 0 0 1-1.13-2.78v-8.7h11.28v-6.06a5.87 5.87 0 0 0-.5-2.45 6.28 6.28 0 0 0-1.38-2Zm-.52 8.18h-8.91v-3.76a3.79 3.79 0 0 1 1.09-2.78 3.85 3.85 0 0 1 2.8-1.13h1a3.83 3.83 0 0 1 2.8 1.13 3.76 3.76 0 0 1 1.14 2.78ZM379.85 96.74a6.37 6.37 0 0 0-2-1.35 6.28 6.28 0 0 0-2.46-.49h-1a6.28 6.28 0 0 0-2.46.49 6.37 6.37 0 0 0-2 1.35 6.28 6.28 0 0 0-1.35 2 5.87 5.87 0 0 0-.5 2.45v14.76a5.94 5.94 0 0 0 .5 2.43 6.26 6.26 0 0 0 1.35 2 6.18 6.18 0 0 0 2 1.34 6.11 6.11 0 0 0 2.46.5h1a6.11 6.11 0 0 0 2.46-.5 6.18 6.18 0 0 0 2-1.34 6.26 6.26 0 0 0 1.35-2 5.94 5.94 0 0 0 .5-2.43v-3.38h-2.37v3.38a3.76 3.76 0 0 1-1.14 2.78 3.81 3.81 0 0 1-2.79 1.13h-1a3.81 3.81 0 0 1-2.79-1.13 3.76 3.76 0 0 1-1.14-2.78v-14.79a3.76 3.76 0 0 1 1.14-2.78 3.81 3.81 0 0 1 2.79-1.13h1a3.81 3.81 0 0 1 2.79 1.13 3.76 3.76 0 0 1 1.14 2.78v3.52h2.37v-3.52a5.87 5.87 0 0 0-.5-2.45 6.28 6.28 0 0 0-1.35-1.97ZM401 97.68v-2.31h-5.07v-6.82h-2.37v6.82h-3.8v2.31h3.8v20a3.3 3.3 0 0 0 .5 1.77 5 5 0 0 0 1.3 1.43 6.82 6.82 0 0 0 1.78 1 5.65 5.65 0 0 0 1.92.35v-2.35a3.06 3.06 0 0 1-1.05-.21 5 5 0 0 1-1-.52 3.05 3.05 0 0 1-.76-.71 1.2 1.2 0 0 1-.31-.73v-20Z"/></svg>